<?xml version="1.0" encoding="UTF-8" standalone="no"?>
<svg
   xmlns:dc="http://purl.org/dc/elements/1.1/"
   xmlns:cc="http://creativecommons.org/ns#"
   xmlns:rdf="http://www.w3.org/1999/02/22-rdf-syntax-ns#"
   xmlns:svg="http://www.w3.org/2000/svg"
   xmlns="http://www.w3.org/2000/svg"
   viewBox="0 0 600 131.70667"
   height="131.70667"
   width="600"
   xml:space="preserve"
   id="svg2"
   version="1.1"><metadata
     id="metadata8"><rdf:RDF><cc:Work
         rdf:about=""><dc:format>image/svg+xml</dc:format><dc:type
           rdf:resource="http://purl.org/dc/dcmitype/StillImage" /></cc:Work></rdf:RDF></metadata><defs
     id="defs6" /><g
     transform="matrix(1.3333333,0,0,-1.3333333,0,131.70667)"
     id="g10"><g
       transform="scale(0.1)"
       id="g12"><path
         id="path14"
         style="fill:#ffffff;fill-opacity:1;fill-rule:nonzero;stroke:none"
         d="m 1043.68,359.52 c -26.9,24.238 -41.74,58.73 -41.74,108.613 v 188.769 h 62.6 V 463.465 c 0,-29.832 7.88,-48.008 21.33,-60.598 13.91,-13.512 33.39,-20.972 55.17,-20.972 21.81,0 41.28,7.46 55.2,20.972 13.44,12.59 21.32,30.766 21.32,60.598 v 193.437 h 62.6 V 468.133 c 0,-49.883 -14.84,-84.375 -41.73,-108.613 -25.04,-22.372 -60.74,-33.555 -97.39,-33.555 -36.62,0 -72.33,11.183 -97.36,33.555" /><path
         id="path16"
         style="fill:#ffffff;fill-opacity:1;fill-rule:nonzero;stroke:none"
         d="M 1333.34,330.621 V 556.68 h 57.97 v -18.176 c 17.16,13.992 38.49,22.844 63.52,22.844 31.07,0 59.36,-13.989 77.91,-36.36 14.84,-17.707 23.19,-40.547 23.19,-79.238 V 330.621 h -60.29 v 119.785 c 0,22.375 -5.1,34.035 -13.44,42.422 -7.89,7.934 -19.94,12.578 -33.86,12.578 -25.49,0 -46.37,-16.304 -54.72,-27.957 V 330.621 h -60.28" /><path
         id="path18"
         style="fill:#ffffff;fill-opacity:1;fill-rule:nonzero;stroke:none"
         d="m 1639.4,675.547 c 21.79,0 39.4,-16.789 39.4,-38.692 0,-21.906 -17.61,-38.695 -39.4,-38.695 -21.79,0 -39.42,16.789 -39.42,38.695 0,21.903 17.63,38.692 39.42,38.692 m 30.14,-344.926 h -60.28 V 556.68 h 60.28 V 330.621" /><path
         id="path20"
         style="fill:#ffffff;fill-opacity:1;fill-rule:nonzero;stroke:none"
         d="m 1821.64,418.719 61.66,137.961 h 62.61 L 1842.5,330.621 h -41.73 L 1697.36,556.68 h 62.61 l 61.67,-137.961" /><path
         id="path22"
         style="fill:#ffffff;fill-opacity:1;fill-rule:nonzero;stroke:none"
         d="m 2182.41,330.621 h -57.97 v 18.188 c -18.54,-15.864 -39.87,-22.856 -62.6,-22.856 -33.38,0 -64.91,14.926 -84.85,38.235 -17.63,20.5 -28.75,48.476 -28.75,79.226 0,66.66 49.14,117.934 110.36,117.934 25.5,0 48.23,-8.391 65.84,-22.844 v 18.176 h 57.97 z m -60.29,146.828 c -12.52,16.778 -32.45,27.957 -55.64,27.957 -35.24,0 -57.96,-29.351 -57.96,-61.992 0,-35.418 25.5,-61.519 59.36,-61.519 22.71,0 42.65,11.179 54.24,27.964 v 67.59" /><path
         id="path24"
         style="fill:#ffffff;fill-opacity:1;fill-rule:nonzero;stroke:none"
         d="m 2377.17,503.082 c -4.18,1.398 -12.98,2.324 -21.79,2.324 -26.43,0 -47.3,-19.097 -54.73,-32.617 V 330.621 h -60.27 v 226.067 h 57.96 v -22.84 c 13.45,16.773 38.02,27.5 65.37,27.5 8.82,0 13.93,-0.942 20.42,-1.868 l -6.96,-56.398" /><path
         id="path26"
         style="fill:#ffffff;fill-opacity:1;fill-rule:nonzero;stroke:none"
         d="m 2447.47,399.141 c 19.01,-24.7 44.51,-46.614 87.17,-46.614 32.46,0 66.78,23.313 66.78,61.067 0,59.195 -69.56,65.722 -116.86,95.086 -24.11,14.914 -44.05,34.023 -44.05,67.121 0,50.801 40.34,85.762 92.27,85.762 41.74,0 68.18,-19.583 83,-32.629 l -17.62,-20.508 c -19,16.777 -37.55,26.57 -64.45,26.57 -36.16,0 -65.38,-22.371 -65.38,-57.801 0,-49.414 65.38,-55.937 111.75,-84.824 26.89,-16.797 49.16,-41.023 49.16,-78.777 0,-51.739 -41.74,-87.641 -94.6,-87.641 -43.13,0 -79.76,18.188 -107.58,55.012 l 20.41,18.176" /><path
         id="path28"
         style="fill:#ffffff;fill-opacity:1;fill-rule:nonzero;stroke:none"
         d="m 2768.35,325.965 c -63.07,0 -108.97,49.863 -108.97,110.93 0,61.062 45.9,110.933 108.97,110.933 63.07,0 108.97,-49.871 108.97,-110.933 0,-61.067 -45.9,-110.93 -108.97,-110.93 m 0,196.699 c -47.76,0 -82.54,-38.223 -82.54,-85.769 0,-47.54 34.78,-85.762 82.54,-85.762 47.75,0 82.54,38.222 82.54,85.762 0,47.546 -34.79,85.769 -82.54,85.769" /><path
         id="path30"
         style="fill:#ffffff;fill-opacity:1;fill-rule:nonzero;stroke:none"
         d="m 2926.02,661.551 h 26.43 V 330.613 h -26.43 v 330.938" /><path
         id="path32"
         style="fill:#ffffff;fill-opacity:1;fill-rule:nonzero;stroke:none"
         d="m 3178.27,359.52 c -14.84,-19.571 -42.21,-33.555 -71.41,-33.555 -34.78,0 -64,16.777 -79.3,43.816 -7.88,14.438 -12.51,31.692 -12.51,60.129 v 113.262 h 26.43 v -109.07 c 0,-29.836 4.63,-43.821 12.05,-55 11.14,-16.782 30.15,-27.969 53.33,-27.969 28.75,0 56.57,17.703 70.48,44.273 v 147.766 h 26.44 V 330.621 h -25.51 v 28.899" /><path
         id="path34"
         style="fill:#ffffff;fill-opacity:1;fill-rule:nonzero;stroke:none"
         d="m 3391.58,517.996 h -71.87 V 401.473 c 0,-19.114 3.71,-28.426 9.27,-35.43 7.43,-9.316 19.48,-14.91 35.24,-14.91 6.02,0 14.83,0.469 22.72,2.793 l 4.64,-24.238 c -6.96,-2.329 -19.01,-3.735 -27.36,-3.735 -19.48,0 -42.2,6.067 -56.57,24.25 -9.28,11.652 -14.38,27.031 -14.38,52.207 v 115.586 h -59.35 v 25.164 h 59.35 v 57.805 h 26.44 V 543.16 h 71.87 v -25.164" /><path
         id="path36"
         style="fill:#ffffff;fill-opacity:1;fill-rule:nonzero;stroke:none"
         d="m 3457.89,640.586 c 12.98,0 23.65,-10.715 23.65,-23.77 0,-13.058 -10.67,-23.3 -23.65,-23.3 -12.98,0 -23.19,10.242 -23.19,23.3 0,13.055 10.21,23.77 23.19,23.77 m -12.98,-97.414 h 26.43 V 330.633 h -26.43 v 212.539" /><path
         id="path38"
         style="fill:#ffffff;fill-opacity:1;fill-rule:nonzero;stroke:none"
         d="m 3628.99,325.965 c -63.06,0 -108.96,49.863 -108.96,110.93 0,61.062 45.9,110.933 108.96,110.933 63.07,0 108.98,-49.871 108.98,-110.933 0,-61.067 -45.91,-110.93 -108.98,-110.93 m 0,196.699 c -47.75,0 -82.54,-38.223 -82.54,-85.769 0,-47.54 34.79,-85.762 82.54,-85.762 47.77,0 82.54,38.222 82.54,85.762 0,47.546 -34.77,85.769 -82.54,85.769" /><path
         id="path40"
         style="fill:#ffffff;fill-opacity:1;fill-rule:nonzero;stroke:none"
         d="m 3812.17,513.34 c 17.15,22.84 44.98,34.48 74.65,34.48 30.6,0 57.96,-12.578 75.11,-35.879 11.6,-15.378 18.09,-33.093 18.09,-68.046 V 330.621 h -26.44 V 442.02 c 0,27.968 -4.63,41.484 -12.05,52.207 -12.05,17.714 -32,28.425 -55.17,28.425 -30.62,0 -57.04,-16.304 -73.26,-44.273 V 330.621 h -26.44 v 212.551 h 25.51 V 513.34" /><path
         id="path42"
         style="fill:#ffffff;fill-opacity:1;fill-rule:nonzero;stroke:none"
         d="m 4038,379.102 c 18.08,-15.383 40.34,-25.649 63.98,-25.649 26.44,0 48.69,14.926 48.69,37.297 0,54.539 -121.95,24.707 -121.95,97.41 0,38.695 36.17,62.004 71.88,62.004 28.75,0 52.39,-9.797 68.16,-20.508 l -13.92,-21.914 c -18.07,11.66 -31.06,17.246 -52.86,17.246 -22.25,0 -46.83,-11.648 -46.83,-36.347 0,-47.09 121.95,-21.914 121.95,-96.485 0,-39.629 -33.39,-63.867 -73.26,-63.867 -35.25,0 -63.53,13.059 -82.07,30.293 l 16.23,20.52" /><path
         id="path44"
         style="fill:#f9ab4e;fill-opacity:1;fill-rule:nonzero;stroke:none"
         d="m 713.375,334.422 127.703,73.73 c 6.305,3.633 9.805,10.352 9.789,17.625 l -0.012,216.164 c -0.027,15.633 -16.953,25.379 -30.484,17.571 L 691.793,585.273 c -6.313,-3.644 -9.023,-10.39 -8.984,-17.687 l 0.082,-215.652 c 0.078,-15.618 16.968,-25.317 30.484,-17.512" /><path
         id="path46"
         style="fill:#f47415;fill-opacity:1;fill-rule:nonzero;stroke:none"
         d="m 850.855,425.516 v 216.425 c 0,7.278 -3.878,13.997 -10.187,17.618 L 594.73,801.102 c -13.554,7.8 -30.457,-1.993 -30.457,-17.618 V 566.055 c 0,-7.285 3.911,-14.028 10.239,-17.641 L 820.449,407.867 c 13.555,-7.73 30.406,2.043 30.406,17.649" /><path
         id="path48"
         style="fill:#f47415;fill-opacity:1;fill-rule:nonzero;stroke:none"
         d="m 850.855,425.516 v 216.425 c 0,7.278 -3.878,13.997 -10.187,17.618 L 594.73,801.102 c -13.554,7.8 -30.457,-1.993 -30.457,-17.618 V 566.055 c 0,-7.285 3.911,-14.028 10.239,-17.641 L 820.449,407.867 c 13.555,-7.73 30.406,2.043 30.406,17.649" /><path
         id="path50"
         style="fill:#f9ab4e;fill-opacity:1;fill-rule:nonzero;stroke:none"
         d="m 468.418,668.113 -127.703,-73.73 c -6.301,-3.645 -9.809,-10.352 -9.793,-17.625 l 0.016,-216.164 c 0.023,-15.645 16.953,-25.379 30.488,-17.567 L 490,417.254 c 6.313,3.652 9.023,10.398 8.988,17.687 l -0.082,215.664 c -0.078,15.606 -16.972,25.309 -30.488,17.508" /><path
         id="path52"
         style="fill:#f47415;fill-opacity:1;fill-rule:nonzero;stroke:none"
         d="M 330.938,577.012 V 360.594 c 0,-7.274 3.882,-13.992 10.183,-17.617 L 587.066,201.434 c 13.555,-7.801 30.454,1.984 30.454,17.617 v 217.422 c 0,7.297 -3.907,14.035 -10.235,17.644 L 361.344,594.656 c -13.555,7.746 -30.406,-2.043 -30.406,-17.644" /><path
         id="path54"
         style="fill:#f47415;fill-opacity:1;fill-rule:nonzero;stroke:none"
         d="M 330.938,577.012 V 360.594 c 0,-7.274 3.882,-13.992 10.183,-17.617 L 587.066,201.434 c 13.555,-7.801 30.454,1.984 30.454,17.617 v 217.422 c 0,7.297 -3.907,14.035 -10.235,17.644 L 361.344,594.656 c -13.555,7.746 -30.406,-2.043 -30.406,-17.644" /></g></g></svg>